<mxfile host="app.diagrams.net" modified="2022-01-10T08:06:21.731Z" agent="5.0 (Macintosh; Intel Mac OS X 10_14_6) AppleWebKit/537.36 (KHTML, like Gecko) Chrome/96.0.4664.110 Safari/537.36" etag="J4r1W6V348sI_EopqiMm" version="16.2.2" type="github">
  <diagram id="6D7t3AC_r5ulQxMm8dug" name="Page-1">
    <mxGraphModel dx="1186" dy="708" grid="1" gridSize="10" guides="1" tooltips="1" connect="1" arrows="1" fold="1" page="1" pageScale="1" pageWidth="827" pageHeight="1169" math="0" shadow="0">
      <root>
        <mxCell id="0" />
        <mxCell id="1" parent="0" />
        <mxCell id="I0GF1Sote8ErK0GJ8H6n-22" value="doris" style="strokeWidth=2;html=1;shape=mxgraph.flowchart.database;whiteSpace=wrap;comic=0;" parent="1" vertex="1">
          <mxGeometry x="140" y="140" width="150" height="270" as="geometry" />
        </mxCell>
        <mxCell id="S-7cpUd9dqpbrGHj3Zll-1" value="" style="group" vertex="1" connectable="0" parent="1">
          <mxGeometry x="580" y="130" width="150" height="290" as="geometry" />
        </mxCell>
        <mxCell id="I0GF1Sote8ErK0GJ8H6n-14" value="" style="rounded=0;whiteSpace=wrap;html=1;comic=0;" parent="S-7cpUd9dqpbrGHj3Zll-1" vertex="1">
          <mxGeometry width="150" height="290" as="geometry" />
        </mxCell>
        <mxCell id="I0GF1Sote8ErK0GJ8H6n-9" value="hdfs" style="shape=cylinder3;whiteSpace=wrap;html=1;boundedLbl=1;backgroundOutline=1;size=15;comic=0;" parent="S-7cpUd9dqpbrGHj3Zll-1" vertex="1">
          <mxGeometry x="45" y="40" width="60" height="80" as="geometry" />
        </mxCell>
        <mxCell id="I0GF1Sote8ErK0GJ8H6n-12" value="s3" style="ellipse;shape=cloud;whiteSpace=wrap;html=1;comic=0;" parent="S-7cpUd9dqpbrGHj3Zll-1" vertex="1">
          <mxGeometry x="15" y="160" width="120" height="80" as="geometry" />
        </mxCell>
        <mxCell id="S-7cpUd9dqpbrGHj3Zll-2" value="ETL JOBS&lt;br&gt;FLINK/SPARK" style="rounded=0;whiteSpace=wrap;html=1;" vertex="1" parent="1">
          <mxGeometry x="370" y="40" width="120" height="60" as="geometry" />
        </mxCell>
        <mxCell id="S-7cpUd9dqpbrGHj3Zll-3" value="" style="endArrow=classic;html=1;rounded=0;edgeStyle=orthogonalEdgeStyle;entryX=1;entryY=0.5;entryDx=0;entryDy=0;dashed=1;" edge="1" parent="1" target="S-7cpUd9dqpbrGHj3Zll-2">
          <mxGeometry width="50" height="50" relative="1" as="geometry">
            <mxPoint x="630" y="130" as="sourcePoint" />
            <mxPoint x="600" y="60" as="targetPoint" />
            <Array as="points">
              <mxPoint x="630" y="70" />
            </Array>
          </mxGeometry>
        </mxCell>
        <mxCell id="S-7cpUd9dqpbrGHj3Zll-4" value="" style="endArrow=classic;html=1;rounded=0;dashed=1;edgeStyle=orthogonalEdgeStyle;entryX=0;entryY=0.25;entryDx=0;entryDy=0;" edge="1" parent="1" target="I0GF1Sote8ErK0GJ8H6n-14">
          <mxGeometry width="50" height="50" relative="1" as="geometry">
            <mxPoint x="460" y="100" as="sourcePoint" />
            <mxPoint x="460" y="240" as="targetPoint" />
            <Array as="points">
              <mxPoint x="460" y="203" />
              <mxPoint x="570" y="203" />
            </Array>
          </mxGeometry>
        </mxCell>
      </root>
    </mxGraphModel>
  </diagram>
</mxfile>
